# xmcd
#
# Track frame offsets:
#	150
#	3261
#	16800
#	30731
#	44863
#	62965
#	81002
#	95708
#	114798
#
# Disc length: 1584 seconds
# Revision: 0
# Processed by: cddbd v1.5.2PL0 Copyright (c) Steve Scherf et al.
# Submitted via: dBpowerAMP V12.0
#
DISCID=6a062e09
DTITLE=Sandrine - Boosted² [CD1]
DYEAR=2008
DGENRE=R&B
TTITLE0=A Different Way (Intro)
TTITLE1=I Feel the Same Way
TTITLE2=Like a Bullet
TTITLE3=Slow It Up (Feat. Darryl Cole)
TTITLE4=Boardwalk Café
TTITLE5=Live Life Get by
TTITLE6=Call Me
TTITLE7=Home
TTITLE8=Another Way (Outro)
EXTD=
EXTT0=
EXTT1=
EXTT2=
EXTT3=
EXTT4=
EXTT5=
EXTT6=
EXTT7=
EXTT8=
PLAYORDER=
